<svg width="24px" height="24px" viewBox="0 0 32 32" xmlns="http://www.w3.org/2000/svg" fill="none"><g id="SVGRepo_bgCarrier" stroke-width="0"></g><g id="SVGRepo_tracerCarrier" stroke-linecap="round" stroke-linejoin="round"></g><g id="SVGRepo_iconCarrier"> <path stroke="#535358" stroke-linecap="round" stroke-linejoin="round" stroke-width="2" d="M15.414 5.586l-11 11a2 2 0 000 2.828l8.172 8.172a2 2 0 002.828 0l11-11A2 2 0 0027 15.172V7a2 2 0 00-2-2h-8.172a2 2 0 00-1.414.586zM10 19l5.5-5.5M13 22l2.5-2.5"></path> <path fill="#535358" d="M23 10a1 1 0 11-2 0 1 1 0 012 0z"></path> </g></svg>